<svg width="51" height="50" viewBox="0 0 51 50" fill="none" xmlns="http://www.w3.org/2000/svg">
<path fill-rule="evenodd" clip-rule="evenodd" d="M33.59 48.7799C31.1517 49.5719 28.5495 50 25.8479 50C23.1444 50 20.5405 49.5713 18.1008 48.7783C19.2278 48.9132 19.6443 48.1805 19.6443 47.5478C19.6443 47.2723 19.6396 46.7865 19.6333 46.1366C19.626 45.3846 19.6166 44.413 19.6099 43.2933C12.6459 44.8052 11.1767 39.9394 11.1767 39.9394C10.0393 37.05 8.39803 36.2807 8.39803 36.2807C6.12468 34.7279 8.57013 34.7595 8.57013 34.7595C11.0813 34.9362 12.4034 37.3377 12.4034 37.3377C14.6376 41.1608 18.2627 40.057 19.6896 39.4157C19.9165 37.7991 20.5643 36.6965 21.2793 36.0712C15.7203 35.4397 9.87656 33.2943 9.87656 23.708C9.87656 20.9763 10.8513 18.7438 12.4534 16.994C12.1953 16.3609 11.3363 13.8185 12.6975 10.3739C12.6975 10.3739 14.8003 9.70144 19.5817 12.9381C21.5797 12.3829 23.72 12.1065 25.8494 12.0952C27.9757 12.1061 30.1176 12.3829 32.1172 12.9381C36.8954 9.70144 38.9935 10.3739 38.9935 10.3739C40.3594 13.8185 39.5004 16.3609 39.2423 16.994C40.8475 18.7438 41.816 20.9763 41.816 23.708C41.816 33.3177 35.9629 35.4334 30.3867 36.0525C31.2848 36.825 32.0859 38.3508 32.0859 40.6854C32.0859 42.9218 32.0719 44.8687 32.0626 46.1588C32.058 46.7981 32.0546 47.2761 32.0546 47.5482C32.0546 48.1838 32.461 48.918 33.59 48.7799Z" fill="black"/>
</svg>
