<svg width="50" height="50" viewBox="0 0 50 50" fill="none" xmlns="http://www.w3.org/2000/svg">
<path d="M22.1651 24.041C22.8291 23.707 23.3312 23.3349 23.6752 22.9329C24.2872 22.2088 24.5893 21.2488 24.5893 20.0587C24.5893 18.9006 24.2872 17.9105 23.6832 17.0804C22.6751 15.7283 20.969 15.0362 18.5568 15.0002H9V34.5078H17.9107C18.9148 34.5078 19.8449 34.4218 20.7049 34.2458C21.565 34.0678 22.3091 33.7418 22.9391 33.2657C23.4992 32.8517 23.9672 32.3376 24.3392 31.7316C24.9273 30.8155 25.2213 29.7774 25.2213 28.6213C25.2213 27.5013 24.9633 26.5472 24.4513 25.7631C23.9332 24.9791 23.1731 24.405 22.1651 24.041ZM12.9423 18.3885H17.2467C18.1927 18.3885 18.9728 18.4905 19.5849 18.6925C20.2929 18.9866 20.6469 19.5846 20.6469 20.4967C20.6469 21.3148 20.3769 21.8868 19.8429 22.2088C19.3048 22.5309 18.6068 22.6929 17.7507 22.6929H12.9423V18.3885ZM19.7489 30.7795C19.2728 31.0095 18.6028 31.1236 17.7447 31.1236H12.9423V25.9211H17.8107C18.6588 25.9271 19.3188 26.0391 19.7909 26.2492C20.6309 26.6292 21.049 27.3252 21.049 28.3433C21.049 29.5434 20.6169 30.3515 19.7489 30.7795Z" fill="#F4EAE5"/>
<path d="M37.9244 15.9102H29.4497V18.3384H37.9244V15.9102Z" fill="#F4EAE5"/>
<path d="M40.8686 25.4932C40.6926 24.3631 40.3045 23.369 39.7005 22.5109C39.0384 21.5388 38.1984 20.8268 37.1763 20.3768C36.1582 19.9247 35.0121 19.6987 33.736 19.7007C31.5938 19.7007 29.8537 20.3708 28.5076 21.7009C27.1655 23.035 26.4934 24.9531 26.4934 27.4533C26.4934 30.1195 27.2355 32.0457 28.7276 33.2278C30.2137 34.4119 31.9298 35.0019 33.878 35.0019C36.2362 35.0019 38.0703 34.2999 39.3805 32.8998C40.2185 32.0157 40.6926 31.1456 40.7966 30.2916H36.8922C36.6662 30.7136 36.4042 31.0436 36.1042 31.2836C35.5601 31.7237 34.8521 31.9437 33.984 31.9437C33.1579 31.9437 32.4579 31.7617 31.8738 31.3996C30.9098 30.8196 30.4057 29.8035 30.3417 28.3574H40.9966C41.0126 27.1113 40.9726 26.1532 40.8686 25.4932ZM30.4377 25.8672C30.5777 24.9291 30.9178 24.1851 31.4578 23.635C31.9979 23.087 32.7619 22.8109 33.74 22.8089C34.6421 22.8089 35.3961 23.067 36.0102 23.585C36.6162 24.1071 36.9583 24.8651 37.0283 25.8672H30.4377Z" fill="#F4EAE5"/>
</svg>
