<svg width="50" height="50" viewBox="0 0 50 50" fill="none" xmlns="http://www.w3.org/2000/svg">
<path fill-rule="evenodd" clip-rule="evenodd" d="M32.7318 48.7799C30.2967 49.5719 27.6981 50 25 50C22.3001 50 19.6998 49.5713 17.2633 48.7783C18.3888 48.9132 18.8047 48.1804 18.8047 47.5477C18.8047 47.2723 18.8 46.7865 18.7937 46.1366C18.7864 45.3846 18.777 44.4129 18.7703 43.2933C11.8156 44.8051 10.3484 39.9394 10.3484 39.9394C9.2125 37.05 7.57343 36.2806 7.57343 36.2806C5.30312 34.7279 7.74531 34.7594 7.74531 34.7594C10.2531 34.9362 11.5734 37.3377 11.5734 37.3377C13.8047 41.1608 17.425 40.057 18.85 39.4157C19.0766 37.7991 19.7234 36.6965 20.4375 36.0712C14.8859 35.4396 9.05 33.2943 9.05 23.708C9.05 20.9763 10.0234 18.7438 11.6234 16.994C11.3656 16.3609 10.5078 13.8184 11.8672 10.3738C11.8672 10.3738 13.9672 9.70142 18.7422 12.9381C20.7375 12.3829 22.875 12.1065 25.0016 12.0952C27.125 12.1061 29.2641 12.3829 31.2609 12.9381C36.0328 9.70142 38.1281 10.3738 38.1281 10.3738C39.4922 13.8184 38.6344 16.3609 38.3766 16.994C39.9797 18.7438 40.9469 20.9763 40.9469 23.708C40.9469 33.3176 35.1016 35.4334 29.5328 36.0525C30.4297 36.8249 31.2297 38.3508 31.2297 40.6854C31.2297 42.9218 31.2157 44.8687 31.2065 46.1588C31.2019 46.7981 31.1984 47.2761 31.1984 47.5481C31.1984 48.1837 31.6043 48.918 32.7318 48.7799Z" fill="#F4EAE5"/>
</svg>
